{"title":"Getaway 2013 TSCamRip.mp4","uid":8902703,"size":431340553,"categoryP":"video","categoryS":"movies","magnet":"?xt=urn:btih:b71c9aeb8ad9732283b6cd2e61215d08d0e1392d&amp;dn=Getaway+2013+TSCamRip.mp4&amp;tr=udp%3A%2F%2Ftracker.openbittorrent.com%3A80&amp;tr=udp%3A%2F%2Fopen.demonii.com%3A1337&amp;tr=udp%3A%2F%2Ftracker.coppersurfer.tk%3A6969&amp;tr=udp%3A%2F%2Fexodus.desync.com%3A6969","seeders":1,"leechers":0,"uploader":"globeplus","files":1,"time":1378842558,"description":"Getaway 2013 TSCamRip.mp4\n\nFormat                                   : MPEG-4\nFormat profile                           : Base Media\nCodec ID                                 : isom\nFile size                                : 411 MiB\nDuration                                 : 1h 22mn\nOverall bit rate mode                    : Variable\nOverall bit rate                         : 700 Kbps\nWriting application                      : Lavf54.32.101\n\nVideo\n\nID                                       : 1\nFormat                                   : AVC\nFormat/Info                              : Advanced Video Codec\nFormat profile                           : &lt;a class=&quot;__cf_email__&quot; href=&quot;/cdn-cgi/l/email-protection&quot; data-cfemail=&quot;a5edccc2cde5e9968b95&quot;&gt;[email&amp;#160;protected]&lt;/a&gt;&lt;script cf-hash='f9e31' type=&quot;text/javascript&quot;&gt;\n/* &lt;![CDATA[ */!function(){try{var t=&quot;currentScript&quot;in document?document.currentScript:function(){for(var t=document.getElementsByTagName(&quot;script&quot;),e=t.length;e--;)if(t[e].getAttribute(&quot;cf-hash&quot;))return t[e]}();if(t&amp;&amp;t.previousSibling){var e,r,n,i,c=t.previousSibling,a=c.getAttribute(&quot;data-cfemail&quot;);if(a){for(e=&quot;&quot;,r=parseInt(a.substr(0,2),16),n=2;a.length-n;n+=2)i=parseInt(a.substr(n,2),16)^r,e+=String.fromCharCode(i);e=document.createTextNode(e),c.parentNode.replaceChild(e,c)}}}catch(u){}}();/* ]]&gt; */&lt;/script&gt;\nFormat settings, CABAC                   : Yes\nFormat settings, ReFrames                : 4 frames\nCodec ID                                 : avc1\nCodec ID/Info                            : Advanced Video Coding\nDuration                                 : 1h 22mn\nBit rate mode                            : Variable\nBit rate                                 : 597 Kbps\nWidth                                    : 720 pixels\nHeight                                   : 480 pixels\nDisplay aspect ratio                     : 16:9\nOriginal display aspect ratio            : 16:9\nFrame rate mode                          : Constant\nFrame rate                               : 30.000 fps\nStandard                                 : NTSC\nColor space                              : YUV\nChroma subsampling                       : 4:2:0\nBit depth                                : 8 bits\nScan type                                : Progressive\nBits/(Pixel*Frame)                       : 0.058\nStream size                              : 351 MiB (85%)\nWriting library                          : x264 core 128 r2216 198a7ea \nLanguage                                 : English\n\nAudio\n\nID                                       : 2\nFormat                                   : AAC\nFormat/Info                              : Advanced Audio Codec\nFormat profile                           : LC\nCodec ID                                 : 40\nDuration                                 : 1h 22mn\nBit rate mode                            : Variable\nBit rate                                 : 96.0 Kbps\nChannel(s)                               : 2 channels\nChannel positions                        : Front: L R\nSampling rate                            : 48.0 KHz\nCompression mode                         : Lossy\nStream size                              : 55.5 MiB (13%)\nLanguage                                 : English\n\n\nPlot\n\nWe open to Brent Magna (Ethan Hawke) arriving home. The place has been ransacked, with the Christmas decorations destroyed and shattered glass everywhere. In addition, there is an obvious sign of a struggle, given Brent finds blood on the floor. He calls out to his wife and gets no response. Suddenly, his phone rings\n\nCut to a parking garage where a tricked out Shelby Corvette waits. Brent steals it and escapes the parking garage despite security trying to stop him.\n\nWe flashback to him getting the call; a middle-aged man, simply called The Voice (Jon Voight) tells him that his wife has been taken and if Brent wants her back, he will have to do EXACTLY what he is told. The Voice tells him to steal the car. It has been outfitted with cameras to watch his every move, and is armor plated to deflect gunfire. Brent is warned by The Voice that he must do whatever he is directed to do. If he refuses a task, fails in it, or is caught by the police, then his wife will die.\n\n\n* enjoy ...","torrent":{"xt":"urn:btih:b71c9aeb8ad9732283b6cd2e61215d08d0e1392d","amp;dn":"Getaway+2013+TSCamRip.mp4","amp;tr":["udp%3A%2F%2Ftracker.openbittorrent.com%3A80","udp%3A%2F%2Fopen.demonii.com%3A1337","udp%3A%2F%2Ftracker.coppersurfer.tk%3A6969","udp%3A%2F%2Fexodus.desync.com%3A6969"],"infoHash":"b71c9aeb8ad9732283b6cd2e61215d08d0e1392d","infoHashBuffer":{"type":"Buffer","data":[183,28,154,235,138,217,115,34,131,182,205,46,97,33,93,8,208,225,57,45]},"announce":[],"urlList":[]}}